<?xml version="1.0" encoding="utf-8"?>
<!-- Generator: Adobe Illustrator 19.0.0, SVG Export Plug-In . SVG Version: 6.00 Build 0)  -->
<svg version="1.1" id="Layer_1" xmlns="http://www.w3.org/2000/svg" xmlns:xlink="http://www.w3.org/1999/xlink" x="0px" y="0px"
	 viewBox="0 0 805.9 85.3" style="enable-background:new 0 0 805.9 85.3;" xml:space="preserve">
<style type="text/css">
	.st0{fill:none;stroke:#000000;stroke-miterlimit:10;}
	.st1{fill:none;stroke:#000000;stroke-linecap:square;stroke-miterlimit:10;}
	.st2{fill:#FFFFFF;stroke:#000000;stroke-miterlimit:10;}
</style>
<path id="XMLID_3_" class="st0" d="M398.8,81l189.7-25.7c0,0,7.9-1.4,8.6-3.8s-9-1.8-9-1.8L421.3,64c0,0,2.3-24.5-1.8-32.6
	s-9.9-11.1-20.8-11.1"/>
<path id="XMLID_6_" class="st0" d="M419.5,31.4l40.9-25.8c0,0,0.8-1,0.3-1.6s-1.5-0.2-1.5-0.2l-41.4,24.6L419.5,31.4z"/>
<path id="XMLID_2_" class="st0" d="M399.1,81L209.4,55.3c0,0-7.9-1.4-8.6-3.8s9-1.8,9-1.8L376.6,64c0,0-2.3-24.5,1.8-32.6
	s9.9-11.1,20.8-11.1"/>
<path id="XMLID_4_" class="st0" d="M378.4,31.4L337.5,5.6c0,0-0.8-1-0.3-1.6s1.5-0.2,1.5-0.2L380,28.5L378.4,31.4z"/>
<path id="XMLID_8_" class="st0" d="M398.3,22v16c0,0-13.1-0.6-19.9,3.1C378.3,41.1,378.3,22,398.3,22z"/>
<path id="XMLID_7_" class="st0" d="M399.7,22v16c0,0,13.1-0.6,19.9,3.1C419.6,41.1,419.7,22,399.7,22z"/>
<path id="XMLID_10_" class="st1" d="M398.8,44.6c0,0-14.3-0.4-15.4,6.1s0,11,0,11s3.6,13.6,15.4,13.6"/>
<path id="XMLID_37_" class="st1" d="M398.8,44.6c0,0,14.3-0.4,15.4,6.1s0,11,0,11s-3.6,13.6-15.4,13.6"/>
<g id="XMLID_5_">
	<path id="XMLID_9_" class="st2" d="M405.1,51.9c0,0,30.7-3.5,38.4,2.7c0,0-3.1,5.2-38.3,2.5"/>
	<path id="XMLID_39_" class="st2" d="M392,56.8c0,0-30.7,3.5-38.4-2.7c0,0,3.9-5.1,39.1-2.4"/>
	<circle id="XMLID_38_" class="st1" cx="398.8" cy="54.8" r="6.9"/>
</g>
<g id="XMLID_1_">
</g>
<g id="XMLID_11_">
</g>
<g id="XMLID_12_">
</g>
<g id="XMLID_13_">
</g>
<g id="XMLID_14_">
</g>
<g id="XMLID_15_">
</g>
<g id="XMLID_16_">
</g>
<g id="XMLID_17_">
</g>
<g id="XMLID_18_">
</g>
<g id="XMLID_19_">
</g>
<g id="XMLID_20_">
</g>
<g id="XMLID_21_">
</g>
<g id="XMLID_22_">
</g>
<g id="XMLID_40_">
</g>
<g id="XMLID_41_">
</g>
</svg>
