<?xml version="1.0" encoding="utf-8"?>
<!-- Generator: Adobe Illustrator 16.0.0, SVG Export Plug-In . SVG Version: 6.00 Build 0)  -->
<!DOCTYPE svg PUBLIC "-//W3C//DTD SVG 1.1//EN" "http://www.w3.org/Graphics/SVG/1.1/DTD/svg11.dtd">
<svg version="1.1" id="Layer_1" xmlns="http://www.w3.org/2000/svg" xmlns:xlink="http://www.w3.org/1999/xlink" x="0px" y="0px"
	 width="805.862px" height="85.333px" viewBox="0 0 805.862 85.333" enable-background="new 0 0 805.862 85.333"
	 xml:space="preserve">
<g>
	<defs>
		<rect id="SVGID_1_" y="0" width="805.862" height="85.333"/>
	</defs>
	<clipPath id="SVGID_2_">
		<use xlink:href="#SVGID_1_"  overflow="visible"/>
	</clipPath>
	<path clip-path="url(#SVGID_2_)" d="M536.845,42.667c0,18.916-15.334,34.25-34.25,34.25s-34.25-15.334-34.25-34.25
		c0-18.916,15.334-34.25,34.25-34.25S536.845,23.751,536.845,42.667"/>
	<path clip-path="url(#SVGID_2_)" d="M483.602,74.222l-0.935,0.731c-2.76,2.162-6.788,1.672-8.95-1.088l-5.98-7.637
		c-2.162-2.76-1.673-6.787,1.088-8.949l0.934-0.731c2.761-2.162,6.787-1.673,8.949,1.088l5.982,7.636
		C486.852,68.033,486.361,72.06,483.602,74.222"/>
	<path clip-path="url(#SVGID_2_)" fill="#A5A5A5" d="M532.13,43.046c0,16.312-13.223,29.535-29.535,29.535
		c-16.312,0-29.535-13.224-29.535-29.535c0-16.312,13.224-29.535,29.535-29.535C518.907,13.511,532.13,26.734,532.13,43.046"/>
	<polyline clip-path="url(#SVGID_2_)" fill="#FFFFFF" points="501.175,46.039 501.175,46.039 501.175,47.687 513.638,46.681 
		514.588,48.414 519.059,46.039 	"/>
	<polyline clip-path="url(#SVGID_2_)" fill="#FFFFFF" points="501.175,46.039 501.175,46.039 501.175,44.39 513.638,45.396 
		514.588,43.664 519.059,46.039 	"/>
	<polygon clip-path="url(#SVGID_2_)" points="499.104,41.772 500.81,44.012 502.759,41.772 502.759,47.292 501.028,49.265 
		499.042,47.16 	"/>
	<polygon clip-path="url(#SVGID_2_)" fill="#FFFFFF" points="503.245,41.772 501.174,21.17 499.104,41.772 501.052,44.012 	"/>
</g>
<g>
	<defs>
		<rect id="SVGID_3_" y="0" width="805.862" height="85.333"/>
	</defs>
	<clipPath id="SVGID_4_">
		<use xlink:href="#SVGID_3_"  overflow="visible"/>
	</clipPath>
	<path clip-path="url(#SVGID_4_)" d="M322.674,42.667c0,18.916-15.334,34.25-34.25,34.25s-34.25-15.334-34.25-34.25
		c0-18.916,15.334-34.25,34.25-34.25S322.674,23.751,322.674,42.667"/>
	<path clip-path="url(#SVGID_4_)" d="M268.218,66.618c0,2.815-2.282,5.097-5.096,5.097c-2.815,0-5.097-2.281-5.097-5.097
		c0-2.814,2.282-5.096,5.097-5.096C265.936,61.522,268.218,63.803,268.218,66.618"/>
	<path clip-path="url(#SVGID_4_)" fill="#A5A5A5" d="M317.959,43.046c0,16.312-13.223,29.535-29.535,29.535
		s-29.535-13.224-29.535-29.535c0-16.312,13.223-29.535,29.535-29.535S317.959,26.734,317.959,43.046"/>
	<polygon clip-path="url(#SVGID_4_)" points="285.317,39 287.557,36.615 289.797,39 	"/>
	<polyline clip-path="url(#SVGID_4_)" fill="#FFFFFF" points="285.963,44.69 287.557,65.857 289.151,44.69 287.557,41.929 	"/>
	<polyline clip-path="url(#SVGID_4_)" points="285.759,39 289.796,39 289.151,44.446 287.557,43.188 285.962,44.629 285.394,39.213 
			"/>
</g>
<g>
	<defs>
		<rect id="SVGID_5_" y="0" width="805.862" height="85.333"/>
	</defs>
	<clipPath id="SVGID_6_">
		<use xlink:href="#SVGID_5_"  overflow="visible"/>
	</clipPath>
	<path clip-path="url(#SVGID_6_)" d="M427.592,42.667c0,18.916-15.334,34.25-34.25,34.25s-34.25-15.334-34.25-34.25
		c0-18.916,15.334-34.25,34.25-34.25S427.592,23.751,427.592,42.667"/>
	<path clip-path="url(#SVGID_6_)" fill="#A5A5A5" d="M363.644,42.667c0-16.402,13.296-29.698,29.698-29.698
		c16.401,0,29.698,13.296,29.698,29.698"/>
	<path clip-path="url(#SVGID_6_)" fill="#A5A5A5" d="M423.039,42.45c0,16.402-13.296,29.698-29.698,29.698
		c-16.401,0-29.698-13.296-29.698-29.698"/>
	<path clip-path="url(#SVGID_6_)" fill="none" stroke="#FFFFFF" stroke-width="2" stroke-miterlimit="10" d="M378.759,43h7.429
		c0,0,1.38-0.163,1.38,0.868"/>
	<path clip-path="url(#SVGID_6_)" fill="none" stroke="#FFFFFF" stroke-width="2" stroke-miterlimit="10" d="M407.76,43h-7.374
		c0,0-1.407-0.163-1.407,0.868"/>
	<path clip-path="url(#SVGID_6_)" fill="#F7931E" d="M393.83,42.667c0,0.269-0.218,0.488-0.488,0.488
		c-0.269,0-0.487-0.219-0.487-0.488s0.218-0.488,0.487-0.488C393.611,42.179,393.83,42.398,393.83,42.667"/>
	
		<circle clip-path="url(#SVGID_6_)" fill="none" stroke="#FFFFFF" stroke-width="2" stroke-miterlimit="10" cx="393.342" cy="42.667" r="0.488"/>
</g>
</svg>
