<?xml version="1.0" encoding="utf-8"?>
<!-- Generator: Adobe Illustrator 19.0.0, SVG Export Plug-In . SVG Version: 6.00 Build 0)  -->
<svg version="1.1" xmlns="http://www.w3.org/2000/svg" xmlns:xlink="http://www.w3.org/1999/xlink" x="0px" y="0px"
	 viewBox="0 0 805.9 85.3" style="enable-background:new 0 0 805.9 85.3;" xml:space="preserve">
<style type="text/css">
	.st0{fill:#4D4D4D;}
	.st1{fill:#FFFFFF;}
	.st2{fill:#0071BC;}
	.st3{fill:#8C6239;}
	.st4{fill:none;stroke:#F7931E;stroke-width:2;stroke-miterlimit:10;}
	.st5{fill:#F7931E;stroke:#F7931E;stroke-width:2;stroke-miterlimit:10;}
</style>
<g id="Layer_5">
</g>
<g id="Layer_4">
	<circle id="XMLID_3_" cx="502.6" cy="42.7" r="34.3"/>
	<path id="XMLID_4_" d="M483.6,74.2l-0.9,0.7c-2.8,2.2-6.8,1.7-8.9-1.1l-6-7.6c-2.2-2.8-1.7-6.8,1.1-8.9l0.9-0.7
		c2.8-2.2,6.8-1.7,8.9,1.1l6,7.6C486.9,68,486.4,72.1,483.6,74.2z"/>
	<circle id="XMLID_13_" class="st0" cx="502.6" cy="43" r="29.5"/>
	<path id="XMLID_21_" d="M514.2,41.5"/>
	<g id="XMLID_24_">
		<polyline id="XMLID_23_" class="st1" points="501.2,46 501.2,46 501.2,47.7 513.6,46.7 514.6,48.4 519.1,46 		"/>
		<polyline id="XMLID_25_" class="st1" points="501.2,46 501.2,46 501.2,44.4 513.6,45.4 514.6,43.7 519.1,46 		"/>
	</g>
	<g id="XMLID_26_">
		<polygon id="XMLID_15_" points="499.1,41.8 500.8,44 502.8,41.8 502.8,47.3 501,49.3 499,47.2 		"/>
		<polygon id="XMLID_22_" class="st1" points="503.2,41.8 501.2,21.2 499.1,41.8 501.1,44 		"/>
	</g>
</g>
<g id="Layer_2">
	<circle id="XMLID_5_" cx="288.4" cy="42.7" r="34.3"/>
	<circle id="XMLID_6_" cx="263.1" cy="66.6" r="5.1"/>
	<circle id="XMLID_12_" class="st0" cx="288.4" cy="43" r="29.5"/>
	<path id="XMLID_16_" class="st1" d="M289.2,40.4"/>
	<path id="XMLID_17_" class="st1" d="M285.3,35.2"/>
	<g id="XMLID_19_">
		<polygon id="XMLID_14_" points="285.3,39 287.6,36.6 289.8,39 		"/>
		<polyline id="XMLID_18_" class="st1" points="286,44.7 287.6,65.9 289.2,44.7 287.6,41.9 		"/>
		<polyline id="XMLID_20_" points="285.8,39 289.8,39 289.2,44.4 287.6,43.2 286,44.6 285.4,39.2 		"/>
	</g>
</g>
<g id="Layer_3">
	<circle id="XMLID_2_" cx="393.3" cy="42.7" r="34.3"/>
	<path id="XMLID_10_" class="st2" d="M363.6,42.7c0-16.4,13.3-29.7,29.7-29.7c16.4,0,29.7,13.3,29.7,29.7"/>
	<path id="XMLID_11_" class="st3" d="M423,42.4c0,16.4-13.3,29.7-29.7,29.7c-16.4,0-29.7-13.3-29.7-29.7"/>
	<path id="XMLID_7_" class="st4" d="M378.8,43h7.4c0,0,1.4-0.2,1.4,0.9"/>
	<path id="XMLID_9_" class="st4" d="M407.8,43h-7.4c0,0-1.4-0.2-1.4,0.9"/>
	<circle id="XMLID_8_" class="st5" cx="393.3" cy="42.7" r="0.5"/>
	<g id="XMLID_1_">
	</g>
	<g id="XMLID_27_">
	</g>
	<g id="XMLID_28_">
	</g>
	<g id="XMLID_29_">
	</g>
	<g id="XMLID_30_">
	</g>
	<g id="XMLID_31_">
	</g>
	<g id="XMLID_32_">
	</g>
	<g id="XMLID_33_">
	</g>
	<g id="XMLID_34_">
	</g>
	<g id="XMLID_35_">
	</g>
	<g id="XMLID_36_">
	</g>
	<g id="XMLID_37_">
	</g>
	<g id="XMLID_38_">
	</g>
	<g id="XMLID_39_">
	</g>
	<g id="XMLID_40_">
	</g>
</g>
</svg>
